<?xml version="1.0" standalone="no"?>
<!DOCTYPE svg PUBLIC "-//W3C//DTD SVG 20010904//EN"
 "http://www.w3.org/TR/2001/REC-SVG-20010904/DTD/svg10.dtd">
<svg version="1.0" xmlns="http://www.w3.org/2000/svg"
 width="512.000000pt" height="512.000000pt" viewBox="0 0 512.000000 512.000000"
 preserveAspectRatio="xMidYMid meet">
<metadata>
Created by potrace 1.16, written by Peter Selinger 2001-2019
</metadata>
<g transform="translate(0.000000,512.000000) scale(0.100000,-0.100000)"
fill="#000000" stroke="none">
<path d="M1419 3307 c-39 -26 -62 -81 -52 -129 4 -23 166 -223 554 -689 301
-361 557 -664 570 -673 30 -21 108 -21 138 0 13 9 270 313 572 675 572 687
557 667 549 743 -5 48 -62 96 -115 96 -65 0 -82 -18 -580 -618 -269 -325 -492
-591 -495 -591 -3 0 -225 266 -495 591 -351 423 -499 594 -522 604 -46 20 -85
17 -124 -9z"/>
</g>
</svg>
